<?xml version="1.0" encoding="UTF-8"?>
<!DOCTYPE svg PUBLIC "-//W3C//DTD SVG 1.0//EN" "http://www.w3.org/TR/2001/REC-SVG-20010904/DTD/svg10.dtd">
<!-- Creator: CorelDRAW 2021.5 -->
<svg xmlns="http://www.w3.org/2000/svg" xml:space="preserve" width="112px" height="51px" version="1.0" style="shape-rendering:geometricPrecision; text-rendering:geometricPrecision; image-rendering:optimizeQuality; fill-rule:evenodd; clip-rule:evenodd"
viewBox="0 0 39.26 17.94"
 xmlns:xlink="http://www.w3.org/1999/xlink"
 xmlns:xodm="http://www.corel.com/coreldraw/odm/2003">
 <defs>
  <style type="text/css">
   <![CDATA[
    .fil0 {fill:#332C2B}
   ]]>
  </style>
 </defs>
 <g id="Layer_x0020_1">
  <metadata id="CorelCorpID_0Corel-Layer"/>
  <path class="fil0" d="M10.75 4.59c-0.9,-0.09 -1.66,-0.38 -2.29,-0.87l0 5.28 -2.16 0 0 -5.55 -2.01 1.85 -1.29 -1.28 4.34 -4.02c1.23,1.75 2.37,2.54 3.41,2.39l0 2.2zm-0.57 7.87c-1.58,0.86 -3.15,0.85 -4.72,-0.04l0 5.52 -2.19 0 0 -5.84 -1.96 1.96 -1.31 -1.31c0,0 1.43,-1.25 4.28,-3.75 2.24,2.63 4.28,2.78 6.13,0.46l1.59 0.72 0 7.76 -1.82 0 0 -5.48zm1.45 -3.58l0 -7.69 2.94 0c0.53,0 1,0.1 1.41,0.28 0.41,0.19 0.73,0.46 0.96,0.83 0.24,0.36 0.35,0.81 0.35,1.35 0,0.52 -0.12,0.97 -0.36,1.33 -0.24,0.37 -0.56,0.65 -0.97,0.84l1.76 3.06 -1.8 0 -1.55 -2.79 -1.14 0 0 2.79 -1.6 0zm1.6 -4.18l1.35 0c0.23,0 0.42,-0.04 0.59,-0.13 0.16,-0.09 0.29,-0.22 0.38,-0.37 0.1,-0.16 0.14,-0.34 0.14,-0.55 0,-0.21 -0.04,-0.4 -0.14,-0.56 -0.09,-0.16 -0.22,-0.28 -0.38,-0.37 -0.17,-0.09 -0.36,-0.13 -0.59,-0.13l-1.35 0 0 2.11zm4.71 4.18l2.6 -7.69 2.13 0 2.6 7.69 -1.74 0 -0.52 -1.57 -2.82 0 -0.51 1.57 -1.74 0zm2.7 -2.96l1.93 0 -0.96 -2.97 -0.97 2.97zm5.42 2.96l0 -7.69 1.23 0 3.47 4.57 0 -4.57 1.6 0 0 7.69 -1.24 0 -3.46 -4.67 0 4.67 -1.6 0zm10.46 0.12c-0.48,0 -0.94,-0.08 -1.36,-0.26 -0.42,-0.17 -0.79,-0.42 -1.09,-0.75 -0.31,-0.32 -0.54,-0.7 -0.69,-1.14l1.31 -0.59c0.19,0.42 0.46,0.75 0.8,0.99 0.34,0.24 0.72,0.36 1.13,0.36 0.22,0 0.41,-0.03 0.57,-0.1 0.16,-0.07 0.28,-0.17 0.37,-0.29 0.09,-0.12 0.13,-0.26 0.13,-0.42 0,-0.18 -0.05,-0.34 -0.16,-0.46 -0.11,-0.13 -0.28,-0.23 -0.52,-0.31l-1.5 -0.49c-0.62,-0.2 -1.08,-0.49 -1.39,-0.85 -0.31,-0.37 -0.46,-0.81 -0.46,-1.33 0,-0.45 0.11,-0.85 0.34,-1.2 0.22,-0.34 0.53,-0.61 0.93,-0.8 0.41,-0.2 0.87,-0.29 1.39,-0.29 0.46,0 0.89,0.08 1.28,0.24 0.39,0.15 0.73,0.38 1.02,0.67 0.28,0.29 0.5,0.63 0.64,1.04l-1.3 0.59c-0.14,-0.36 -0.36,-0.64 -0.65,-0.84 -0.29,-0.21 -0.62,-0.31 -0.99,-0.31 -0.21,0 -0.4,0.04 -0.57,0.11 -0.16,0.06 -0.29,0.16 -0.38,0.29 -0.09,0.13 -0.13,0.27 -0.13,0.44 0,0.18 0.06,0.33 0.17,0.47 0.12,0.13 0.3,0.24 0.53,0.31l1.48 0.48c0.61,0.2 1.08,0.47 1.38,0.83 0.31,0.36 0.46,0.8 0.46,1.31 0,0.45 -0.11,0.85 -0.35,1.19 -0.23,0.35 -0.55,0.62 -0.96,0.82 -0.41,0.2 -0.89,0.29 -1.43,0.29zm-20.74 8.94c-0.61,0 -1.15,-0.17 -1.61,-0.5 -0.47,-0.33 -0.83,-0.79 -1.09,-1.39 -0.26,-0.6 -0.39,-1.29 -0.39,-2.08 0,-0.8 0.13,-1.5 0.38,-2.09 0.26,-0.59 0.62,-1.05 1.09,-1.38 0.46,-0.33 1,-0.5 1.61,-0.5 0.63,0 1.17,0.17 1.64,0.5 0.46,0.33 0.82,0.79 1.08,1.39 0.26,0.59 0.39,1.28 0.39,2.08 0,0.79 -0.13,1.48 -0.39,2.07 -0.26,0.6 -0.62,1.06 -1.08,1.4 -0.47,0.33 -1.01,0.5 -1.63,0.5zm0.01 -1.45c0.32,0 0.59,-0.1 0.81,-0.3 0.22,-0.2 0.39,-0.48 0.5,-0.86 0.12,-0.38 0.18,-0.84 0.18,-1.36 0,-0.53 -0.06,-0.99 -0.18,-1.36 -0.11,-0.38 -0.28,-0.66 -0.51,-0.86 -0.22,-0.2 -0.5,-0.3 -0.82,-0.3 -0.31,0 -0.58,0.1 -0.8,0.3 -0.22,0.2 -0.39,0.48 -0.51,0.86 -0.12,0.37 -0.17,0.83 -0.17,1.36 0,0.52 0.05,0.97 0.17,1.35 0.12,0.38 0.29,0.67 0.51,0.87 0.23,0.2 0.5,0.3 0.82,0.3zm4.28 1.32l0 -7.68 2.95 0c0.53,0 0.99,0.09 1.4,0.28 0.41,0.18 0.74,0.46 0.97,0.82 0.23,0.37 0.35,0.82 0.35,1.35 0,0.53 -0.12,0.97 -0.36,1.34 -0.24,0.37 -0.57,0.64 -0.97,0.83l1.75 3.06 -1.79 0 -1.56 -2.78 -1.14 0 0 2.78 -1.6 0zm1.6 -4.17l1.36 0c0.22,0 0.42,-0.05 0.58,-0.14 0.17,-0.09 0.3,-0.21 0.39,-0.37 0.09,-0.16 0.14,-0.34 0.14,-0.55 0,-0.21 -0.05,-0.4 -0.14,-0.55 -0.09,-0.16 -0.22,-0.29 -0.39,-0.38 -0.16,-0.09 -0.36,-0.13 -0.58,-0.13l-1.36 0 0 2.12zm5.29 4.17l0 -7.68 5.17 0 0 1.39 -3.57 0 0 1.74 3.36 0 0 1.4 -3.36 0 0 1.76 3.57 0 0 1.39 -5.17 0z"/>
 </g>
</svg>
